<?xml version="1.0" standalone="no"?>
<!DOCTYPE svg PUBLIC "-//W3C//DTD SVG 20010904//EN"
 "http://www.w3.org/TR/2001/REC-SVG-20010904/DTD/svg10.dtd">
<svg version="1.0" xmlns="http://www.w3.org/2000/svg"
 width="1024.000000pt" height="1024.000000pt" viewBox="0 0 1024.000000 1024.000000"
 preserveAspectRatio="xMidYMid meet">

<g transform="translate(0.000000,1024.000000) scale(0.100000,-0.100000)"
fill="#000000" stroke="none">
<path d="M0 7491 l0 -2749 27 -18 c23 -14 360 -270 657 -498 28 -22 98 -75
156 -120 58 -44 146 -112 195 -151 50 -39 145 -113 212 -163 l121 -92 124 88
c163 116 435 308 688 485 l205 144 3 1656 2 1657 228 0 c126 0 232 3 236 7 4
4 47 6 96 4 50 -1 90 1 90 6 0 4 -35 9 -77 11 -43 1 -80 7 -84 13 -4 8 -8 7
-13 -2 -3 -8 -3 6 0 30 4 24 8 71 10 105 2 33 7 121 13 194 5 74 8 141 6 150
-1 10 0 11 2 5 11 -31 23 -9 23 40 0 34 -3 47 -9 38 -6 -9 -9 10 -8 50 0 46 3
57 8 39 7 -21 8 -18 8 15 -2 121 2 206 9 202 4 -3 7 7 7 21 1 15 4 43 8 62 5
24 4 29 -2 15 -9 -19 -7 54 4 180 3 34 1 45 -5 35 -12 -19 -13 -5 -1 18 11 23
23 101 12 83 -5 -8 -8 3 -7 32 0 25 5 43 10 40 4 -3 7 19 5 48 -2 30 0 59 4
66 11 17 26 196 18 210 -4 7 -3 57 1 110 5 54 6 109 3 123 -4 19 -3 21 5 10 7
-10 10 35 11 150 0 91 4 155 7 142 4 -13 6 23 5 80 -1 57 -2 120 -2 141 l-1
37 -1505 0 -1505 0 0 -2749z"/>
<path d="M4200 10226 c0 -9 7 -12 20 -9 11 3 20 9 20 14 0 5 -9 9 -20 9 -11 0
-20 -6 -20 -14z"/>
<path d="M4293 10230 c-23 -9 -30 -31 -31 -84 0 -16 -5 -32 -12 -36 -6 -4 -10
-13 -8 -21 2 -9 -4 -13 -14 -11 -12 2 -16 -2 -12 -13 3 -8 2 -15 -3 -15 -5 0
-15 16 -22 36 -7 19 -15 33 -18 30 -3 -3 2 -23 10 -44 18 -46 16 -94 -4 -100
-12 -3 -12 -2 0 6 8 6 9 12 3 16 -17 10 -24 -11 -12 -34 8 -15 8 -20 -1 -18
-7 2 -15 -6 -17 -17 -2 -11 -10 -27 -17 -35 -13 -17 -26 -46 -31 -72 -7 -32 6
-19 32 35 14 28 42 84 63 122 155 289 151 278 94 255z m4 -35 c-9 -19 -13 -21
-15 -9 -3 13 12 33 25 34 0 0 -4 -11 -10 -25z"/>
<path d="M3558 10153 c23 -2 61 -2 85 0 23 2 4 4 -43 4 -47 0 -66 -2 -42 -4z"/>
<path d="M3021 10094 c0 -11 3 -14 6 -6 3 7 2 16 -1 19 -3 4 -6 -2 -5 -13z"/>
<path d="M4161 10064 c0 -11 3 -14 6 -6 3 7 2 16 -1 19 -3 4 -6 -2 -5 -13z"/>
<path d="M4080 9908 c0 -22 15 -37 28 -29 7 4 10 15 6 24 -7 20 -34 23 -34 5z"/>
<path d="M4120 9910 c0 -5 5 -10 10 -10 6 0 10 5 10 10 0 6 -4 10 -10 10 -5 0
-10 -4 -10 -10z"/>
<path d="M3031 9854 c0 -11 3 -14 6 -6 3 7 2 16 -1 19 -3 4 -6 -2 -5 -13z"/>
<path d="M4037 9853 c-7 -11 10 -40 18 -31 4 4 3 14 -3 24 -5 9 -12 12 -15 7z"/>
<path d="M4059 9749 c-15 -38 -24 -69 -20 -69 13 0 61 112 54 125 -5 9 -17
-11 -34 -56z"/>
<path d="M3997 9768 c-2 -7 -1 -22 3 -33 6 -16 8 -13 7 13 0 35 -2 39 -10 20z"/>
<path d="M4009 9680 c-3 -34 -5 -42 -14 -65 -11 -25 -31 -46 -38 -39 -3 3 -3
-3 0 -14 3 -12 -3 -27 -15 -38 -11 -11 -23 -34 -27 -51 -3 -18 -11 -33 -16
-33 -5 0 -11 -11 -15 -25 -3 -14 -10 -25 -15 -25 -5 0 -9 -9 -9 -19 0 -11 -7
-26 -15 -35 -8 -8 -15 -20 -15 -27 0 -8 3 -9 9 -3 17 17 91 163 91 179 0 8 4
15 9 15 4 0 19 21 33 48 14 26 34 61 44 78 15 26 16 36 7 55 l-12 24 -2 -25z"/>
<path d="M2997 9607 c-4 -10 -7 -35 -6 -55 l1 -37 9 40 c11 45 8 82 -4 52z"/>
<path d="M3840 9584 c0 -8 5 -12 10 -9 6 3 10 10 10 16 0 5 -4 9 -10 9 -5 0
-10 -7 -10 -16z"/>
<path d="M3916 9584 c-5 -12 2 -24 15 -24 3 0 9 8 11 18 6 21 -18 26 -26 6z"/>
<path d="M3873 9515 c-8 -22 6 -33 17 -15 13 20 12 30 0 30 -6 0 -13 -7 -17
-15z"/>
<path d="M3856 9442 c-11 -23 -16 -45 -13 -49 4 -3 7 1 7 10 0 8 7 23 16 31 8
9 14 24 12 33 -2 11 -10 2 -22 -25z"/>
<path d="M3788 9333 c7 -3 16 -2 19 1 4 3 -2 6 -13 5 -11 0 -14 -3 -6 -6z"/>
<path d="M3787 9259 c3 -22 1 -29 -7 -24 -9 5 -10 1 -5 -15 5 -15 4 -20 -4
-16 -6 4 -11 3 -11 -3 0 -5 -5 -22 -12 -38 -7 -15 -12 -35 -12 -43 -1 -18 -25
-21 -45 -6 -10 8 -9 1 4 -23 l17 -35 13 25 c7 13 14 29 15 34 1 6 10 21 19 35
10 14 29 48 44 77 22 44 24 52 11 57 -28 11 -32 6 -27 -25z"/>
<path d="M3690 9045 c0 -9 -4 -13 -10 -10 -5 3 -7 0 -4 -8 3 -8 -2 -20 -11
-27 -8 -7 -15 -22 -15 -33 0 -16 -3 -18 -11 -10 -8 8 -7 19 4 42 17 35 16 38
-7 15 -19 -18 -21 -61 -4 -66 7 -3 8 -10 4 -17 -7 -11 -10 -11 -17 0 -6 10 -9
8 -9 -8 0 -13 0 -26 1 -29 0 -4 -3 -10 -8 -13 -14 -10 -33 -50 -33 -68 0 -22
18 6 87 139 28 54 47 100 42 104 -5 3 -9 -2 -9 -11z"/>
<path d="M3553 8870 c0 -26 2 -27 13 -12 7 9 8 19 3 20 -5 2 -7 8 -3 13 3 5 1
9 -4 9 -5 0 -9 -13 -9 -30z"/>
<path d="M3521 8827 c0 -16 4 -38 10 -49 6 -11 7 -23 3 -27 -5 -3 -9 -13 -9
-21 0 -9 -7 -14 -19 -12 -10 2 -15 -1 -11 -7 3 -6 -1 -27 -11 -46 -12 -26 -20
-33 -29 -25 -6 5 -14 7 -18 4 -9 -9 4 -35 14 -28 5 3 9 -5 9 -18 0 -15 17 10
46 67 25 50 51 96 57 103 7 10 6 17 -8 30 -16 16 -17 16 -6 -5 8 -15 8 -23 2
-23 -6 0 -13 10 -15 23 -3 12 -7 31 -9 42 -3 14 -5 12 -6 -8z"/>
<path d="M3455 8670 c-3 -5 -1 -10 4 -10 6 0 11 5 11 10 0 6 -2 10 -4 10 -3 0
-8 -4 -11 -10z"/>
<path d="M3387 8566 c-4 -11 -1 -13 11 -9 14 5 15 3 5 -8 -15 -15 -18 -43 -4
-35 15 10 19 45 6 56 -9 8 -14 7 -18 -4z"/>
<path d="M3430 8539 c-12 -16 -20 -32 -17 -35 2 -3 14 11 25 31 26 43 21 46
-8 4z"/>
<path d="M3373 8470 c-1 -8 1 -22 4 -30 3 -11 8 -9 18 10 19 33 18 36 -3 36
-10 0 -19 -7 -19 -16z"/>
<path d="M2946 8444 c-4 -20 -5 -38 -3 -40 3 -3 8 11 11 32 4 20 5 38 3 40 -3
3 -8 -11 -11 -32z"/>
<path d="M3346 8388 c-23 -50 -52 -77 -76 -71 -10 3 -21 0 -25 -7 -4 -7 2 -14
15 -17 16 -4 20 -12 18 -32 -2 -14 -8 -25 -15 -24 -7 2 -10 -4 -7 -12 4 -8 2
-15 -4 -15 -6 0 -15 12 -20 28 -6 16 -11 20 -11 10 -1 -9 4 -29 11 -42 9 -21
8 -29 -5 -44 -10 -10 -14 -22 -10 -26 4 -4 3 -10 -2 -14 -15 -11 -75 -127 -75
-146 0 -9 -7 -19 -15 -22 -8 -4 -15 -14 -15 -23 0 -9 -9 -27 -20 -41 -11 -14
-20 -35 -20 -48 0 -13 -4 -20 -10 -17 -6 3 -7 -1 -4 -10 9 -22 245 446 238
472 -3 12 0 24 6 28 9 5 10 1 5 -14 -13 -41 4 -20 35 43 18 36 31 69 29 74 -2
6 -12 -8 -23 -30z"/>
<path d="M3235 8364 c-18 -44 -18 -44 -1 -44 12 0 36 47 36 71 0 22 -21 5 -35
-27z"/>
<path d="M3291 8364 c0 -11 3 -14 6 -6 3 7 2 16 -1 19 -3 4 -6 -2 -5 -13z"/>
<path d="M3150 8065 c-7 -9 -8 -15 -2 -15 5 0 12 7 16 15 3 8 4 15 2 15 -2 0
-9 -7 -16 -15z"/>
<path d="M3040 7790 c0 -5 5 -10 11 -10 5 0 7 5 4 10 -3 6 -8 10 -11 10 -2 0
-4 -4 -4 -10z"/>
<path d="M2530 5892 l0 -1699 43 -14 c23 -7 48 -13 54 -12 7 0 10 -3 7 -8 -3
-5 2 -9 11 -9 10 0 33 -7 53 -16 21 -9 52 -22 70 -30 36 -15 44 -3 10 15 -23
11 -23 11 2 5 19 -4 21 -3 10 5 -8 5 -27 7 -44 4 -20 -4 -27 -3 -22 5 3 6 1
14 -5 18 -8 5 -9 3 -4 -6 6 -10 4 -12 -9 -7 -10 4 -20 7 -22 7 -2 0 -4 7 -4
15 0 8 -4 16 -10 16 -20 3 -25 4 -38 12 -7 5 -22 5 -35 2 -17 -5 -18 -4 -7 4
18 13 8 24 -23 24 -19 0 -23 4 -20 18 5 16 7 16 20 4 8 -8 17 -15 21 -15 17 1
52 40 52 58 0 11 6 23 13 25 7 3 6 6 -5 6 -9 1 -20 -3 -23 -9 -3 -5 -22 -10
-40 -10 -35 0 -35 0 -31 43 2 23 4 63 5 90 l1 47 40 0 40 0 0 40 0 40 -40 0
-40 0 -1 78 c-1 117 -1 664 0 1160 1 423 2 442 20 442 17 0 18 9 16 123 -3
196 -3 197 -20 197 -13 0 -15 33 -15 240 0 233 1 240 20 240 17 0 20 7 20 40
0 33 -3 40 -20 40 -19 0 -20 7 -20 120 l0 120 40 0 40 0 0 80 0 80 -46 0 c-25
0 -43 4 -40 9 4 5 0 11 -6 14 -7 2 8 2 33 0 28 -3 49 -1 53 6 4 6 26 10 49 9
l42 -1 -45 -7 c-25 -4 190 -8 478 -8 342 -1 522 1 522 8 0 6 60 10 160 10 100
0 160 -4 160 -10 0 -6 73 -10 200 -10 127 0 200 4 200 10 0 6 60 10 160 10
100 0 160 -4 160 -10 0 -5 -6 -10 -12 -10 -10 0 -10 -2 0 -8 9 -6 11 -64 9
-253 -2 -134 -1 -265 3 -289 4 -25 7 99 6 275 l-1 320 -1097 3 -1098 2 0
-1698z m103 1681 c-7 -2 -21 -2 -30 0 -10 3 -4 5 12 5 17 0 24 -2 18 -5z m330
0 c-46 -2 -120 -2 -165 0 -46 1 -9 3 82 3 91 0 128 -2 83 -3z m360 0 c-24 -2
-62 -2 -85 0 -24 2 -5 4 42 4 47 0 66 -2 43 -4z m165 0 c-10 -2 -26 -2 -35 0
-10 3 -2 5 17 5 19 0 27 -2 18 -5z m974 0 c-144 -2 -380 -2 -525 0 -144 1 -26
2 263 2 289 0 407 -1 262 -2z m-1539 -20 c-24 -2 -62 -2 -85 0 -24 2 -5 4 42
4 47 0 66 -2 43 -4z m420 0 c-57 -2 -149 -2 -205 0 -57 1 -11 3 102 3 113 0
159 -2 103 -3z m144 1 c-3 -3 -12 -4 -19 -1 -8 3 -5 6 6 6 11 1 17 -2 13 -5z
m776 -1 c-35 -2 -91 -2 -125 0 -35 2 -7 3 62 3 69 0 97 -1 63 -3z m-1716 -255
c-2 -13 -4 -3 -4 22 0 25 2 35 4 23 2 -13 2 -33 0 -45z m0 -1820 c-2 -24 -4
-5 -4 42 0 47 2 66 4 43 2 -24 2 -62 0 -85z m0 -340 c-2 -13 -4 -3 -4 22 0 25
2 35 4 23 2 -13 2 -33 0 -45z m0 -560 c-2 -13 -4 -3 -4 22 0 25 2 35 4 23 2
-13 2 -33 0 -45z"/>
<path d="M4940 7570 c0 -11 5 -20 11 -20 5 0 8 3 6 8 -3 4 33 6 79 4 46 -2 84
-8 84 -13 0 -5 68 -8 163 -7 l162 2 -125 6 c-96 4 -40 7 245 13 699 13 1005
12 1005 -4 0 -3 26 -4 58 -2 38 2 50 0 37 -6 l-20 -8 20 -5 c11 -3 0 -6 -25
-6 -36 0 -40 2 -20 8 31 9 -111 1 -160 -10 -21 -5 27 -8 124 -8 131 1 155 3
136 13 -19 10 -20 13 -5 18 25 10 32 8 15 -4 -12 -8 -10 -9 8 -4 13 4 30 1 39
-6 8 -8 41 -13 74 -14 32 0 59 -4 59 -8 0 -5 12 -8 28 -7 42 3 48 1 32 -11
-12 -9 -12 -10 3 -5 32 11 41 -6 11 -20 -16 -8 -20 -12 -9 -10 11 2 38 7 60
10 l40 5 -35 -14 -35 -15 40 5 c22 4 49 9 60 12 11 3 17 2 13 -2 -4 -4 -22
-10 -39 -14 -18 -4 -34 -12 -37 -19 -2 -8 5 -8 30 2 59 24 81 29 73 16 -4 -7
-2 -10 6 -9 8 2 27 0 42 -4 l28 -8 -22 -18 -23 -18 23 -8 c18 -6 21 -9 10 -16
-8 -5 -9 -9 -4 -9 6 0 16 4 24 9 11 7 9 10 -8 16 -11 3 -21 11 -21 17 0 5 7 7
16 4 8 -3 12 -2 9 4 -9 14 1 12 34 -5 16 -8 32 -11 37 -7 5 4 2 -1 -5 -10 -12
-16 -10 -18 15 -20 16 0 36 -2 44 -2 9 -1 14 -9 12 -20 -2 -11 1 -15 7 -11 6
3 11 2 11 -4 0 -6 7 -7 17 -4 11 4 14 3 9 -5 -5 -8 0 -12 14 -12 12 0 19 -4
16 -9 -4 -5 2 -7 13 -4 10 3 22 0 25 -6 4 -6 1 -9 -7 -5 -8 3 -17 -2 -20 -10
-4 -9 -17 -16 -31 -16 -13 0 -26 -6 -29 -14 -4 -10 5 -13 36 -12 32 1 42 5 41
17 -1 13 5 15 33 9 55 -13 85 -51 60 -76 -11 -12 -8 -64 4 -64 6 0 8 -7 5 -15
-3 -10 1 -18 12 -22 9 -4 19 -10 22 -13 10 -15 48 -21 56 -9 6 11 -12 31 -40
43 -7 3 -6 8 4 16 12 8 9 9 -12 4 -25 -5 -28 -3 -28 18 0 44 20 50 57 18 19
-17 37 -30 42 -30 5 0 7 -20 6 -45 -3 -49 0 -53 26 -29 18 17 28 13 62 -24 7
-7 26 -29 44 -48 19 -21 26 -34 17 -34 -8 0 -14 -7 -14 -15 0 -17 16 -20 25
-4 9 14 47 -21 41 -38 -3 -7 -1 -13 4 -13 6 0 10 -6 10 -14 0 -8 9 -17 19 -21
13 -4 18 -12 14 -22 -4 -11 -2 -14 5 -9 7 4 14 -3 18 -19 3 -14 15 -32 25 -39
11 -7 21 -23 24 -35 2 -11 7 -26 11 -32 3 -6 1 -15 -6 -19 -7 -5 -9 -16 -5
-30 l7 -22 15 21 c8 12 19 19 24 16 5 -4 4 5 -2 19 -7 14 -16 23 -22 19 -5 -3
-7 0 -5 8 3 8 -4 28 -16 44 -12 17 -28 43 -36 59 -8 16 -27 42 -42 58 -15 16
-27 31 -26 34 2 23 -232 262 -331 338 -86 66 -214 143 -230 138 -8 -3 -11 0
-7 6 5 9 -10 18 -44 27 -3 1 -31 14 -63 29 -127 58 -394 129 -507 135 -8 1
-62 5 -120 10 -58 6 -455 10 -882 10 -772 1 -778 1 -778 -19z m453 3 c-72 -2
-194 -2 -270 0 -76 1 -16 3 132 3 149 0 211 -2 138 -3z m390 0 c-35 -2 -91 -2
-125 0 -35 2 -7 3 62 3 69 0 97 -1 63 -3z m1090 -40 c-7 -2 -21 -2 -30 0 -10
3 -4 5 12 5 17 0 24 -2 18 -5z m841 -440 c4 -9 1 -21 -5 -27 -9 -8 -10 -7 -6
7 4 9 2 17 -3 17 -6 0 -10 5 -10 10 0 16 17 11 24 -7z m312 -441 c-18 -16 -18
-16 -6 6 6 13 14 21 18 18 3 -4 -2 -14 -12 -24z"/>
<path d="M3858 7543 c12 -2 32 -2 45 0 12 2 2 4 -23 4 -25 0 -35 -2 -22 -4z"/>
<path d="M5618 7543 c56 -2 148 -2 205 0 56 1 10 3 -103 3 -113 0 -159 -2
-102 -3z"/>
<path d="M6123 7543 c9 -2 23 -2 30 0 6 3 -1 5 -18 5 -16 0 -22 -2 -12 -5z"/>
<path d="M4648 7533 c7 -3 16 -2 19 1 4 3 -2 6 -13 5 -11 0 -14 -3 -6 -6z"/>
<path d="M4935 7522 c-2 -7 -5 -796 -5 -1752 l0 -1740 819 0 c837 0 936 4
1133 40 418 79 837 355 1074 709 153 228 260 518 284 770 11 113 13 301 3 430
l-6 91 -23 -15 c-20 -13 -80 -15 -384 -16 -199 0 -364 2 -367 5 -4 3 8 6 25 6
18 0 32 5 32 11 0 6 -8 8 -19 4 -11 -3 -22 -1 -26 5 -3 5 -15 10 -26 10 -16 0
-18 5 -14 28 3 15 2 20 -1 12 -4 -8 -11 -23 -16 -34 -7 -13 -7 -16 1 -12 6 4
11 3 11 -3 0 -5 3 -16 6 -25 5 -12 0 -16 -19 -16 -18 0 -26 6 -29 25 -3 13 -2
26 2 27 4 2 10 16 14 32 6 25 5 28 -7 17 -19 -15 -35 5 -18 22 7 7 3 17 -14
33 -14 13 -25 32 -25 43 0 19 -39 101 -61 127 -6 7 -8 18 -4 24 4 6 1 9 -7 8
-8 -2 -15 12 -19 37 -3 22 -7 34 -8 26 0 -9 -10 -4 -25 14 -13 15 -22 33 -20
40 3 6 -5 23 -17 36 l-21 24 16 -27 c9 -15 16 -30 16 -33 0 -10 -46 49 -53 68
-3 9 -13 17 -20 17 -14 0 -54 38 -49 46 7 12 0 31 -13 31 -14 0 -18 -8 -12
-24 1 -5 6 -7 10 -5 5 1 6 -2 3 -6 -3 -5 12 -25 34 -43 49 -41 119 -128 153
-189 70 -128 85 -160 101 -215 10 -33 20 -67 23 -75 4 -8 8 -33 10 -54 1 -22
6 -42 10 -45 14 -10 15 -262 3 -366 -50 -416 -304 -716 -697 -822 -97 -27
-102 -27 -505 -31 l-408 -3 0 618 c0 340 -3 628 -6 641 -4 12 -10 22 -15 22
-5 0 -6 -7 -3 -15 6 -14 -41 -15 -406 -15 -317 1 -409 4 -402 13 5 7 8 312 7
742 l-2 730 86 -2 c99 -1 81 4 -26 9 -53 3 -74 0 -78 -10z m3291 -1567 c8 -33
8 -45 0 -45 -6 0 -6 -4 2 -8 7 -5 10 -16 6 -25 -7 -18 -24 -23 -24 -7 0 6 -12
11 -27 11 -21 1 -23 2 -8 6 49 12 28 20 -67 27 -56 3 -105 10 -108 15 -3 5
-23 11 -45 14 -22 2 -3 4 43 5 86 2 113 18 40 24 l-43 3 47 5 c25 3 45 3 42 1
-5 -6 17 -31 27 -31 5 0 9 7 9 15 0 25 17 17 31 -14 11 -24 15 -26 26 -16 7 8
13 24 13 38 0 25 9 41 19 32 3 -4 10 -26 17 -50z m-3211 5 c8 -49 25 -53 25
-6 l0 35 40 -17 c24 -10 40 -24 40 -34 0 -15 12 -16 117 -13 71 2 119 8 121
14 5 14 82 14 82 1 0 -6 46 -10 119 -10 129 0 168 -13 69 -24 -79 -8 -128 -5
-68 4 42 6 -116 6 -405 -1 l-120 -3 125 -6 125 -6 -122 -2 c-69 -1 -123 -6
-123 -11 0 -6 19 -12 43 -14 23 -2 4 -4 -43 -4 -57 0 -72 2 -45 6 27 4 35 8
23 13 -9 4 -26 4 -37 1 -17 -4 -21 -1 -21 16 0 12 -4 20 -9 17 -5 -4 -5 10 0
32 5 20 9 40 9 45 0 4 11 7 24 7 20 0 25 -6 31 -40z m2490 8 c5 -23 9 -27 12
-15 3 12 15 17 44 17 37 0 39 -2 39 -31 l0 -31 -72 3 c-69 4 -71 3 -73 -19 -1
-13 -8 -28 -16 -32 -10 -7 -17 1 -26 33 -12 40 -17 117 -6 89 4 -10 8 -10 19
-1 11 9 14 7 14 -11 0 -28 24 -21 28 8 5 33 29 26 37 -10z m-1767 -22 c0 -14
-6 -27 -14 -30 -10 -4 -11 0 -4 18 5 13 6 27 3 30 -4 3 -2 6 4 6 6 0 11 -11
11 -24z m2000 -33 c-16 -2 -40 -2 -55 0 -16 2 -3 4 27 4 30 0 43 -2 28 -4z
m165 0 c-13 -2 -33 -2 -45 0 -13 2 -3 4 22 4 25 0 35 -2 23 -4z m-2480 -20
c-13 -2 -33 -2 -45 0 -13 2 -3 4 22 4 25 0 35 -2 23 -4z m260 0 c-7 -2 -21 -2
-30 0 -10 3 -4 5 12 5 17 0 24 -2 18 -5z m1916 3 c-9 -8 -99 -13 -99 -5 0 5
23 9 52 9 28 0 49 -2 47 -4z m436 -5 c28 -4 -29 -6 -125 -3 -96 2 -179 5 -185
7 -20 7 261 3 310 -4z m-2452 -28 c-13 -2 -33 -2 -45 0 -13 2 -3 4 22 4 25 0
35 -2 23 -4z m1846 -88 c1 16 3 17 11 5 6 -9 5 -17 -3 -22 -16 -10 -27 0 -26
25 1 20 2 20 9 -3 7 -21 8 -22 9 -5z m811 -5 c0 -15 -7 -20 -25 -20 -24 0 -24
1 -8 20 10 11 21 20 25 20 5 0 8 -9 8 -20z m-3137 -17 c-13 -2 -33 -2 -45 0
-13 2 -3 4 22 4 25 0 35 -2 23 -4z m2394 -19 c-3 -3 -12 -4 -19 -1 -8 3 -5 6
6 6 11 1 17 -2 13 -5z m651 -1 c-10 -2 -28 -2 -40 0 -13 2 -5 4 17 4 22 1 32
-1 23 -4z m92 -3 c0 -5 -7 -10 -15 -10 -8 0 -15 5 -15 10 0 6 7 10 15 10 8 0
15 -4 15 -10z m-3 -26 c-3 -3 -12 -4 -19 -1 -8 3 -5 6 6 6 11 1 17 -2 13 -5z"/>
<path d="M4985 5910 c-3 -5 1 -10 10 -10 9 0 13 5 10 10 -3 6 -8 10 -10 10 -2
0 -7 -4 -10 -10z"/>
<path d="M5520 7510 c0 -17 7 -20 40 -20 33 0 40 3 40 20 0 17 -7 20 -40 20
-33 0 -40 -3 -40 -20z"/>
<path d="M5958 7523 c23 -2 42 -8 42 -14 0 -5 18 -9 40 -9 22 0 40 4 40 10 0
6 66 11 163 13 102 1 72 3 -83 3 -135 0 -226 -1 -202 -3z"/>
<path d="M3440 7505 c0 -12 16 -15 80 -15 64 0 80 3 80 15 0 12 -16 15 -80 15
-64 0 -80 -3 -80 -15z"/>
<path d="M4662 7500 c0 -14 2 -19 5 -12 2 6 2 18 0 25 -3 6 -5 1 -5 -13z"/>
<path d="M7135 7389 c-11 -17 1 -21 15 -4 8 9 8 15 2 15 -6 0 -14 -5 -17 -11z"/>
<path d="M6950 7380 c-19 -12 -7 -22 21 -18 19 2 20 5 8 15 -9 7 -20 9 -29 3z"/>
<path d="M7085 7374 c-18 -13 -18 -14 8 -14 15 0 27 4 27 9 0 17 -15 19 -35 5z"/>
<path d="M7120 7330 c0 -5 4 -10 9 -10 6 0 13 5 16 10 3 6 -1 10 -9 10 -9 0
-16 -4 -16 -10z"/>
<path d="M7360 7311 c0 -10 19 -25 25 -20 1 2 -3 10 -11 17 -8 7 -14 8 -14 3z"/>
<path d="M4643 7200 c0 -47 2 -66 4 -42 2 23 2 61 0 85 -2 23 -4 4 -4 -43z"/>
<path d="M4663 7200 c0 -47 2 -66 4 -42 2 23 2 61 0 85 -2 23 -4 4 -4 -43z"/>
<path d="M7515 7219 c-11 -16 -1 -19 13 -3 7 8 8 14 3 14 -5 0 -13 -5 -16 -11z"/>
<path d="M7520 7050 c0 -5 7 -10 16 -10 8 0 12 5 9 10 -3 6 -10 10 -16 10 -5
0 -9 -4 -9 -10z"/>
<path d="M3280 7032 c0 -7 -12 -12 -27 -13 -24 -1 -22 -3 11 -10 46 -11 49
-10 30 15 -8 11 -14 14 -14 8z"/>
<path d="M4671 7003 c0 -25 1 -26 9 -8 12 27 12 35 0 35 -5 0 -10 -12 -9 -27z"/>
<path d="M7721 6994 c0 -11 3 -14 6 -6 3 7 2 16 -1 19 -3 4 -6 -2 -5 -13z"/>
<path d="M3330 6990 c0 -5 7 -10 15 -10 8 0 15 5 15 10 0 6 -7 10 -15 10 -8 0
-15 -4 -15 -10z"/>
<path d="M3200 6959 c0 -5 4 -8 8 -5 25 15 29 -46 28 -417 -1 -213 3 -387 7
-387 4 0 7 174 7 386 l-1 385 593 1 c326 0 661 3 743 7 105 6 -13 8 -395 9
-300 1 -556 2 -570 2 -14 1 -97 -1 -185 -4 -94 -2 -143 -1 -120 4 33 6 30 7
-21 4 -49 -3 -63 -1 -68 11 -6 17 -26 20 -26 4z"/>
<path d="M2640 6920 c0 -22 5 -40 10 -40 6 0 10 -33 10 -80 l0 -80 36 0 37 0
-7 61 c-3 34 -6 70 -6 80 0 12 -7 19 -20 19 -17 0 -20 7 -20 40 0 33 -3 40
-20 40 -17 0 -20 -7 -20 -40z"/>
<path d="M7850 6904 c0 -8 5 -12 10 -9 6 4 8 11 5 16 -9 14 -15 11 -15 -7z"/>
<path d="M7685 6890 c-3 -5 1 -10 10 -10 9 0 13 5 10 10 -3 6 -8 10 -10 10 -2
0 -7 -4 -10 -10z"/>
<path d="M5786 6871 c-4 -6 -12 -9 -17 -6 -5 3 -6 -1 -3 -9 3 -9 0 -18 -7 -21
-19 -7 -26 -275 -8 -275 8 0 11 -52 9 -197 -2 -109 -2 -218 -1 -243 l3 -45 9
35 c4 19 7 182 6 363 -1 258 -4 327 -14 327 -7 0 -13 4 -13 10 0 5 8 7 18 4
13 -4 14 -3 4 4 -11 7 -10 10 3 16 41 15 724 1 860 -18 99 -14 220 -61 318
-123 72 -46 77 -48 77 -33 0 6 -7 10 -15 10 -8 0 -15 4 -15 10 0 5 6 7 14 4
19 -7 31 15 17 29 -9 9 -11 8 -6 -5 6 -14 2 -16 -22 -13 -15 2 -35 4 -43 4
-13 1 -13 2 0 11 10 6 11 10 3 10 -7 0 -13 9 -13 20 0 10 -9 24 -19 30 -25 13
-41 13 -41 0 0 -5 9 -10 20 -10 11 0 20 -5 20 -11 0 -12 -43 -1 -48 12 -2 4
-9 6 -17 3 -8 -3 -22 -1 -32 6 -15 9 -14 10 7 4 20 -5 22 -4 13 6 -6 7 -30 14
-52 15 -22 1 -48 8 -57 16 -9 7 -28 14 -42 15 -15 1 -43 2 -62 3 l-35 3 28 10
c26 9 27 11 10 24 -10 7 -27 13 -38 13 -16 -1 -14 -3 9 -13 l28 -13 -38 -6
c-22 -4 -52 -6 -69 -5 -23 1 -20 3 15 8 35 6 20 8 -65 9 -60 1 -193 3 -295 5
l-185 3 160 -6 160 -7 -220 -2 c-145 -1 -215 2 -205 8 11 7 7 10 -18 10 -20 0
-31 -4 -27 -10 8 -14 -47 -1 -56 13 -4 5 -9 5 -13 -2z m691 -27 c-3 -3 -12 -4
-19 -1 -8 3 -5 6 6 6 11 1 17 -2 13 -5z"/>
<path d="M6353 6873 c9 -2 25 -2 35 0 9 3 1 5 -18 5 -19 0 -27 -2 -17 -5z"/>
<path d="M6498 6873 c7 -3 16 -2 19 1 4 3 -2 6 -13 5 -11 0 -14 -3 -6 -6z"/>
<path d="M6790 6865 c0 -12 8 -14 43 -9 70 11 78 23 15 24 -45 0 -58 -3 -58
-15z"/>
<path d="M6711 6853 c22 -28 32 -33 46 -21 21 17 15 31 -12 24 -14 -4 -25 -2
-25 4 0 5 -5 10 -11 10 -8 0 -7 -6 2 -17z"/>
<path d="M7880 6803 c0 -21 3 -24 9 -14 5 8 7 20 4 28 -8 21 -13 15 -13 -14z"/>
<path d="M6845 6811 c-7 -12 25 -30 42 -24 10 4 9 8 -1 19 -17 16 -32 18 -41
5z"/>
<path d="M3390 6520 l0 -250 675 0 675 0 -2 248 -3 247 -672 3 -673 2 0 -250z"/>
<path d="M7920 6734 c0 -15 33 -11 38 4 2 6 -6 10 -17 9 -12 -1 -21 -7 -21
-13z"/>
<path d="M7101 6706 c-10 -11 -7 -17 10 -29 12 -9 27 -13 34 -11 7 3 16 1 19
-5 9 -14 36 -2 36 15 0 8 -9 14 -19 14 -11 0 -26 7 -35 15 -18 19 -30 19 -45
1z"/>
<path d="M8050 6626 c0 -9 5 -16 10 -16 6 0 10 -4 10 -10 0 -5 -7 -10 -16 -10
-8 0 -12 -5 -8 -11 3 -6 14 -9 24 -6 15 4 18 0 14 -27 -2 -22 -1 -27 6 -16 14
21 13 -5 -1 -33 -9 -20 -9 -20 4 -4 19 24 30 22 17 -4 -6 -11 -9 -25 -6 -32 2
-7 5 -4 5 6 1 24 21 12 21 -13 0 -10 5 -20 11 -22 9 -3 14 -31 18 -113 1 -17
3 -17 11 -5 7 11 10 -1 10 -40 0 -39 3 -51 10 -40 6 10 9 -3 8 -44 -1 -38 3
-61 10 -64 7 -2 12 -13 12 -24 0 -12 2 -19 5 -16 6 5 -14 130 -34 218 -25 111
-97 298 -126 327 -13 13 -15 13 -15 -1z"/>
<path d="M7090 6615 c7 -8 17 -12 22 -9 6 4 5 10 -3 15 -22 14 -33 10 -19 -6z"/>
<path d="M8001 6594 c0 -11 3 -14 6 -6 3 7 2 16 -1 19 -3 4 -6 -2 -5 -13z"/>
<path d="M7240 6547 c0 -7 7 -22 15 -33 8 -12 11 -24 8 -28 -3 -3 1 -6 10 -6
11 0 19 -17 28 -55 17 -78 34 -84 24 -9 -4 32 -8 69 -9 81 -1 16 -6 21 -17 18
-12 -4 -19 2 -23 20 -6 25 -36 36 -36 12z"/>
<path d="M7343 6540 c1 -11 4 -20 8 -20 4 0 9 9 12 20 3 13 0 20 -8 20 -8 0
-13 -9 -12 -20z"/>
<path d="M7260 6460 c0 -5 5 -10 11 -10 5 0 7 5 4 10 -3 6 -8 10 -11 10 -2 0
-4 -4 -4 -10z"/>
<path d="M8042 6438 c-18 -18 -14 -38 8 -38 11 0 20 7 20 15 0 8 -5 15 -11 15
-5 0 -7 5 -4 10 8 14 2 13 -13 -2z"/>
<path d="M8110 6434 c0 -13 18 -39 24 -34 2 3 -2 14 -10 24 -8 11 -14 16 -14
10z"/>
<path d="M5040 6309 c0 -5 5 -7 10 -4 6 3 10 8 10 11 0 2 -4 4 -10 4 -5 0 -10
-5 -10 -11z"/>
<path d="M5105 6310 c3 -5 8 -10 11 -10 2 0 4 5 4 10 0 6 -5 10 -11 10 -5 0
-7 -4 -4 -10z"/>
<path d="M7346 6302 c-4 -13 -5 -26 -2 -29 10 -11 18 4 14 29 l-4 23 -8 -23z"/>
<path d="M5083 6160 c0 -47 2 -66 4 -42 2 23 2 61 0 85 -2 23 -4 4 -4 -43z"/>
<path d="M8000 6200 c0 -33 3 -40 20 -40 17 0 20 7 20 40 0 33 -3 40 -20 40
-17 0 -20 -7 -20 -40z"/>
<path d="M8162 6106 c-2 -42 0 -47 13 -36 17 14 20 25 6 15 -6 -3 -12 12 -14
32 -3 34 -4 33 -5 -11z"/>
<path d="M3273 6126 c4 -9 -1 -16 -11 -18 -13 -3 -12 -5 6 -10 15 -4 22 -2 22
8 0 9 11 14 31 14 27 0 29 -3 24 -22 -6 -17 -4 -20 10 -15 9 4 51 8 93 9 l77
2 -85 5 -85 6 85 8 c144 12 1280 4 1269 -10 -7 -7 -6 -14 1 -18 8 -5 10 -100
9 -321 -2 -172 0 -317 4 -321 4 -4 7 152 7 345 l-1 352 -731 0 c-631 0 -729
-2 -725 -14z"/>
<path d="M3200 6090 c0 -5 9 -10 21 -10 11 0 17 5 14 10 -3 6 -13 10 -21 10
-8 0 -14 -4 -14 -10z"/>
<path d="M4118 6093 c67 -2 177 -2 245 0 67 1 12 3 -123 3 -135 0 -190 -2
-122 -3z"/>
<path d="M4080 6065 c0 -11 11 -15 40 -15 29 0 40 4 40 15 0 11 -11 15 -40 15
-29 0 -40 -4 -40 -15z"/>
<path d="M7803 6073 c-124 -2 -203 -7 -203 -13 0 -6 76 -10 200 -10 119 0 200
4 200 9 0 6 19 12 43 14 l42 4 -40 -1 c-22 0 -131 -2 -242 -3z"/>
<path d="M5520 6060 c0 -5 18 -10 40 -10 22 0 40 5 40 10 0 6 -18 10 -40 10
-22 0 -40 -4 -40 -10z"/>
<path d="M3212 5545 c-1 -15 3 -25 12 -25 9 0 12 8 8 25 -2 14 -7 25 -11 25
-4 0 -8 -11 -9 -25z"/>
<path d="M3293 5475 c-7 -8 -13 -17 -13 -20 0 -3 109 -4 243 -3 l242 1 -200 9
c-110 5 -201 13 -203 19 -5 14 -55 10 -69 -6z"/>
<path d="M3920 5460 c0 -6 56 -10 148 -10 98 0 142 3 132 10 -20 13 -280 13
-280 0z"/>
<path d="M4280 5460 c-41 -6 -42 -7 -10 -8 19 0 58 3 85 8 47 7 48 7 10 7 -22
0 -60 -3 -85 -7z"/>
<path d="M4498 5453 c12 -2 32 -2 45 0 12 2 2 4 -23 4 -25 0 -35 -2 -22 -4z"/>
<path d="M3240 5425 c0 -8 -4 -15 -9 -15 -6 0 -5 -15 1 -37 15 -55 6 -1365 -9
-1370 -10 -4 -10 -9 0 -24 6 -10 15 -19 19 -19 4 0 8 333 8 740 0 407 -2 740
-5 740 -3 0 -5 -7 -5 -15z"/>
<path d="M3211 5374 c0 -11 3 -14 6 -6 3 7 2 16 -1 19 -3 4 -6 -2 -5 -13z"/>
<path d="M3390 4575 c0 -399 2 -725 4 -725 3 0 73 43 158 96 135 85 324 209
1010 662 l177 117 0 288 1 287 -675 0 -675 0 0 -725z"/>
<path d="M3223 4680 c0 -25 2 -35 4 -22 2 12 2 32 0 45 -2 12 -4 2 -4 -23z"/>
<path d="M3213 4320 c0 -47 2 -66 4 -42 2 23 2 61 0 85 -2 23 -4 4 -4 -43z"/>
<path d="M2695 4210 c-7 -12 2 -30 16 -30 5 0 9 9 9 20 0 21 -15 27 -25 10z"/>
<path d="M2753 4153 c9 -2 25 -2 35 0 9 3 1 5 -18 5 -19 0 -27 -2 -17 -5z"/>
<path d="M2840 4115 c-7 -8 -9 -22 -6 -31 6 -15 8 -15 26 1 11 10 20 24 20 32
0 18 -25 17 -40 -2z"/>
<path d="M3017 4116 c-4 -10 -1 -13 8 -9 8 3 12 9 9 14 -7 12 -11 11 -17 -5z"/>
<path d="M2884 4084 c3 -8 2 -12 -3 -9 -5 3 -12 1 -16 -5 -6 -9 8 -15 29 -11
5 1 12 -2 15 -7 3 -5 57 -30 119 -55 88 -36 118 -44 135 -37 20 9 20 10 2 9
-42 -2 -56 1 -49 13 4 6 3 8 -3 5 -15 -9 -84 21 -80 34 1 6 -11 12 -26 13 -16
1 -32 8 -36 15 -6 9 -11 10 -15 2 -4 -6 -12 -11 -18 -11 -7 0 -6 6 2 15 10 13
9 15 -9 15 -12 0 -24 7 -27 15 -4 8 -11 15 -16 15 -6 0 -7 -7 -4 -16z"/>
<path d="M2988 4073 c7 -3 16 -2 19 1 4 3 -2 6 -13 5 -11 0 -14 -3 -6 -6z"/>
<path d="M3170 3996 c0 -2 7 -7 16 -10 8 -3 12 -2 9 4 -6 10 -25 14 -25 6z"/>
<path d="M3176 3953 c-16 -4 -12 -9 20 -24 50 -23 54 -23 54 1 0 17 -5 19 -32
13 -22 -4 -29 -3 -24 5 4 7 6 11 4 11 -2 -1 -12 -4 -22 -6z"/>
<path d="M2634 3647 c-86 -29 -144 -101 -144 -180 0 -99 57 -152 220 -206 130
-42 165 -83 133 -150 -23 -45 -54 -61 -123 -61 -61 0 -125 25 -158 61 l-22 23
-34 -40 c-31 -36 -33 -40 -18 -57 35 -39 122 -71 207 -75 96 -5 142 7 191 51
48 41 64 77 64 137 0 106 -45 150 -205 201 -113 37 -155 69 -155 117 0 39 33
79 74 90 45 13 129 -2 180 -32 l41 -24 23 34 c12 18 22 38 22 43 0 5 -28 24
-63 41 -74 36 -170 47 -233 27z"/>
<path d="M3303 3646 c-100 -33 -185 -106 -226 -194 -17 -38 -21 -66 -21 -147
0 -90 3 -106 28 -159 84 -173 293 -242 472 -157 69 33 146 110 177 179 30 67
30 217 0 284 -30 66 -102 139 -170 172 -69 34 -192 45 -260 22z m218 -112 c88
-44 129 -116 129 -228 0 -126 -62 -213 -178 -251 -120 -40 -262 31 -303 151
-20 58 -17 172 5 214 70 134 213 181 347 114z"/>
<path d="M6183 3646 c-138 -45 -220 -140 -245 -284 -28 -167 69 -335 225 -388
133 -46 281 -10 377 92 72 76 93 128 93 239 1 76 -3 99 -25 146 -57 125 -168
200 -306 206 -47 2 -93 -3 -119 -11z m213 -111 c113 -51 164 -193 118 -330
-56 -164 -275 -215 -397 -92 -57 57 -80 125 -75 221 4 83 30 133 93 182 74 56
164 63 261 19z"/>
<path d="M7612 3642 c-98 -35 -151 -114 -139 -205 3 -21 13 -49 22 -63 24 -37
97 -80 178 -104 128 -39 177 -75 177 -128 0 -34 -57 -87 -103 -96 -58 -11
-141 10 -192 49 l-44 34 -25 -30 c-15 -17 -26 -37 -26 -44 0 -16 74 -62 133
-82 50 -17 170 -19 212 -3 117 44 173 154 131 255 -21 49 -86 91 -191 124
-109 34 -151 55 -165 80 -27 52 7 116 71 130 52 12 135 -4 180 -34 21 -14 41
-25 43 -25 7 0 46 66 46 78 0 6 -28 24 -62 41 -84 41 -173 49 -246 23z"/>
<path d="M3888 3311 l-3 -341 223 0 223 0 -3 43 -3 42 -167 3 -168 2 -2 293
-3 292 -47 3 -47 3 -3 -340z"/>
<path d="M4412 3387 l3 -264 30 -49 c59 -95 193 -141 317 -109 71 18 109 43
148 97 43 59 51 118 48 363 l-3 220 -50 0 -50 0 0 -240 c0 -222 -1 -243 -20
-274 -30 -51 -67 -74 -129 -79 -30 -2 -66 -2 -80 2 -33 8 -85 53 -99 85 -8 16
-14 116 -17 266 l-5 240 -48 3 -48 3 3 -264z"/>
<path d="M5067 3643 c-4 -3 -7 -23 -7 -44 l0 -38 108 -3 107 -3 3 -292 2 -293
50 0 50 0 2 293 3 292 100 1 100 2 0 43 0 44 -256 3 c-140 1 -258 -1 -262 -5z"/>
<path d="M5704 3635 c-3 -8 -4 -160 -2 -337 l3 -323 53 -3 53 -3 -6 328 c-3
180 -5 334 -5 341 0 18 -89 16 -96 -3z"/>
<path d="M6760 3310 l0 -340 50 0 50 0 2 248 3 248 185 -245 185 -246 46 -3
46 -3 7 38 c3 21 6 174 6 341 l0 302 -50 0 -50 0 -2 -255 -3 -256 -115 152
c-100 133 -182 239 -252 330 -16 21 -29 27 -64 27 l-44 1 0 -339z"/>
<path d="M10047 2899 l-176 -181 20 -21 c11 -12 15 -23 9 -25 -14 -5 -13 -19
3 -25 15 -6 17 59 3 82 -7 11 -5 13 7 8 11 -4 17 -1 17 8 0 22 17 18 23 -5 3
-11 10 -20 15 -20 7 0 7 11 1 32 -5 18 -9 34 -9 35 0 2 28 31 62 65 35 35 54
53 44 41 -11 -13 -15 -23 -9 -23 5 0 16 12 24 27 20 39 48 65 61 57 8 -5 9 -2
5 10 -4 9 -3 14 2 11 5 -3 12 3 16 14 3 11 12 22 20 25 22 8 14 -37 -7 -46
-18 -7 -26 -48 -9 -48 4 0 13 -19 18 -42 10 -41 11 -40 7 22 -3 58 -2 55 11
-30 11 -69 13 -136 9 -242 -5 -109 -4 -148 5 -148 8 0 11 60 11 222 -1 139 -5
217 -11 208 -6 -10 -8 1 -8 35 1 40 3 45 9 25 6 -18 8 -7 9 43 1 37 0 67 -2
67 -2 0 -83 -81 -180 -181z m-142 -179 c3 -5 1 -10 -4 -10 -6 0 -11 5 -11 10
0 6 2 10 4 10 3 0 8 -4 11 -10z"/>
<path d="M10126 2924 c-11 -7 -17 -17 -13 -20 3 -4 14 1 23 10 21 22 15 28
-10 10z"/>
<path d="M10044 2838 c-19 -21 -19 -21 0 -14 12 4 23 2 28 -6 5 -9 8 -6 8 9 0
31 -14 36 -36 11z"/>
<path d="M10008 2785 c-10 -13 -18 -32 -18 -42 0 -11 3 -14 8 -7 4 6 15 13 24
17 9 3 15 14 14 24 -2 10 2 21 8 25 7 5 6 8 -4 8 -8 -1 -23 -11 -32 -25z"/>
<path d="M10193 2680 c0 -25 2 -35 4 -22 2 12 2 32 0 45 -2 12 -4 2 -4 -23z"/>
<path d="M9709 2549 c-85 -88 -145 -158 -142 -166 3 -8 0 -11 -8 -8 -16 6
-167 -140 -157 -151 4 -3 29 17 57 45 28 28 56 51 63 51 9 0 8 3 -2 10 -13 9
-13 10 1 10 8 0 21 -6 28 -12 11 -11 11 -9 1 11 -11 21 -10 23 3 18 15 -5 26
9 33 41 4 24 14 27 37 13 20 -13 21 -13 8 3 -12 14 -11 19 4 36 9 10 24 16 33
13 14 -4 14 -3 3 5 -12 8 -8 16 19 41 26 23 37 28 47 19 13 -11 13 -10 17 42
1 9 9 14 22 12 12 -1 27 5 35 14 12 15 11 16 -10 9 l-24 -7 23 23 c31 31 74
36 67 7 -6 -20 11 -68 22 -68 3 0 13 5 21 10 13 8 12 10 -2 10 -13 0 -18 8
-18 32 0 17 -8 40 -17 50 -16 18 -16 18 0 12 9 -3 17 -2 17 4 0 5 -8 13 -17
16 -13 5 -53 -30 -164 -145z m141 111 c0 -5 -5 -10 -11 -10 -5 0 -7 5 -4 10 3
6 8 10 11 10 2 0 4 -4 4 -10z m-100 -100 c0 -5 -5 -10 -11 -10 -5 0 -7 5 -4
10 3 6 8 10 11 10 2 0 4 -4 4 -10z"/>
<path d="M10173 2560 c0 -47 2 -66 4 -42 2 23 2 61 0 85 -2 23 -4 4 -4 -43z"/>
<path d="M9799 2569 c-9 -6 -1 -9 24 -9 20 0 37 4 37 9 0 11 -44 11 -61 0z"/>
<path d="M9740 2485 c0 -8 -9 -19 -20 -25 -11 -6 -20 -19 -20 -30 0 -10 -6
-21 -12 -23 -8 -3 -6 -6 5 -6 9 -1 17 4 17 9 0 6 11 16 25 22 18 8 25 19 25
40 0 15 -4 28 -10 28 -5 0 -10 -7 -10 -15z"/>
<path d="M10190 2360 l-4 -125 -6 85 -6 85 -2 -82 c-1 -48 2 -84 8 -88 20 -13
-10 -35 -39 -29 -18 4 -22 3 -12 -4 7 -5 10 -15 6 -21 -5 -9 -11 -9 -23 1 -13
11 -15 10 -9 -4 7 -19 -26 -44 -43 -33 -5 3 -7 0 -4 -8 5 -13 -16 -30 -41 -32
-19 -1 -35 -16 -29 -27 4 -6 -2 -8 -17 -3 -16 4 -19 3 -11 -3 9 -6 -6 -23 -58
-61 -69 -51 -71 -52 -95 -37 -28 19 -34 10 -8 -10 17 -11 16 -14 -11 -37 -16
-14 -36 -23 -44 -19 -10 3 -13 1 -8 -6 4 -7 1 -12 -7 -12 -8 0 -24 -14 -37
-30 -16 -20 -29 -28 -41 -25 -9 3 -20 1 -24 -4 -4 -7 1 -8 12 -4 17 5 17 5 2
-12 -14 -14 -21 -15 -39 -5 -12 6 -25 9 -28 5 -3 -3 4 -8 16 -12 22 -5 22 -6
5 -22 -42 -39 -82 -61 -100 -55 -13 4 -15 3 -4 -4 15 -11 -2 -27 -19 -17 -6 4
-7 -1 -3 -11 5 -13 3 -16 -10 -11 -9 3 -19 1 -23 -5 -5 -7 -2 -8 6 -3 9 5 11
4 6 -4 -4 -6 -12 -8 -19 -4 -6 3 -23 7 -39 8 l-28 2 22 -25 23 -25 -25 13
c-23 12 -24 12 -11 -3 12 -15 11 -17 -2 -17 -9 0 -21 -8 -26 -19 -16 -29 -108
-91 -126 -85 -8 4 -15 1 -15 -6 0 -6 6 -8 13 -5 6 4 1 -2 -13 -14 -14 -11 -36
-26 -50 -33 -14 -7 -33 -23 -43 -35 -10 -13 -23 -23 -29 -23 -7 0 -6 5 1 14 9
10 8 15 -2 19 -10 4 -13 -2 -11 -19 2 -17 -7 -31 -30 -49 -36 -27 -51 -32 -40
-12 4 7 3 9 -2 4 -5 -5 -9 -13 -9 -18 0 -5 -4 -10 -10 -11 -9 -2 -47 -33 -81
-65 -7 -7 -16 -13 -20 -13 -4 0 -16 -8 -27 -17 -19 -17 -19 -17 -13 5 11 34
-14 27 -27 -8 -6 -16 -15 -30 -20 -30 -4 0 -6 -4 -2 -9 3 -5 1 -12 -4 -15 -5
-3 -11 1 -15 9 -5 15 -27 21 -25 7 3 -19 -2 -25 -11 -12 -7 11 -9 6 -6 -17 2
-18 0 -30 -5 -27 -5 3 -20 -2 -33 -11 -14 -9 -29 -14 -33 -12 -5 3 -10 -3 -10
-14 -2 -17 0 -18 13 -4 9 8 20 15 26 15 6 0 -1 -9 -15 -20 -14 -11 -29 -20
-34 -20 -5 0 -17 -9 -26 -21 -10 -11 -25 -18 -33 -15 -8 3 -17 -1 -20 -9 -3
-7 -12 -11 -20 -8 -17 6 -19 -13 -1 -21 6 -3 2 -3 -10 0 -19 4 -22 2 -16 -12
5 -14 3 -16 -11 -11 -9 4 -15 3 -11 -2 5 -9 -65 -71 -79 -71 -4 0 -23 -16 -43
-35 -20 -19 -41 -35 -46 -35 -5 0 -33 -19 -61 -43 -74 -62 -91 -74 -82 -59 4
6 2 12 -3 12 -6 0 -11 -6 -11 -14 0 -8 -27 -35 -59 -60 -58 -45 -78 -56 -66
-36 4 6 -1 7 -11 3 -12 -4 -14 -8 -6 -11 16 -5 -4 -32 -22 -32 -7 0 -25 -13
-41 -30 -16 -16 -34 -30 -39 -30 -6 0 -23 -11 -38 -25 -15 -14 -31 -25 -35
-25 -5 0 -14 -9 -21 -20 -7 -11 -17 -20 -23 -20 -8 0 -7 6 2 17 11 16 11 16
-1 5 -8 -7 -15 -18 -15 -25 0 -7 -8 -12 -17 -12 -19 0 -33 -12 -33 -28 0 -7
-8 -11 -17 -11 -10 1 -16 -3 -15 -10 1 -6 -4 -10 -11 -8 -7 1 -15 -5 -18 -13
-8 -20 -103 -87 -114 -80 -5 3 -12 0 -16 -6 -5 -8 -2 -10 7 -5 19 10 -41 -42
-63 -55 -14 -7 -16 -6 -12 6 4 8 10 15 16 15 5 0 7 4 4 9 -3 4 11 24 32 43 20
18 47 45 59 58 12 14 27 30 32 35 26 24 108 113 126 136 22 27 -163 -157 -241
-241 -28 -30 -101 -103 -161 -162 l-110 -108 1503 0 1504 0 0 1099 c0 604 -3
1125 -6 1159 -5 44 -10 59 -20 55 -10 -4 -14 15 -17 84 -3 84 -3 82 -7 -37z
m30 -80 c0 -11 -4 -20 -10 -20 -5 0 -10 9 -10 20 0 11 5 20 10 20 6 0 10 -9
10 -20z m-805 -620 c3 -5 2 -10 -4 -10 -5 0 -13 5 -16 10 -3 6 -2 10 4 10 5 0
13 -4 16 -10z"/>
<path d="M9655 2410 c3 -5 8 -10 11 -10 2 0 4 5 4 10 0 6 -5 10 -11 10 -5 0
-7 -4 -4 -10z"/>
<path d="M9587 2351 c-4 -17 -3 -21 5 -13 5 5 8 16 6 23 -3 8 -7 3 -11 -10z"/>
<path d="M9533 2265 c-19 -21 -16 -25 18 -25 24 0 30 3 25 16 -3 9 -6 18 -6
20 0 10 -26 2 -37 -11z"/>
<path d="M10080 2236 c0 -2 7 -7 16 -10 8 -3 12 -2 9 4 -6 10 -25 14 -25 6z"/>
<path d="M10155 2220 c3 -5 8 -10 11 -10 2 0 4 5 4 10 0 6 -5 10 -11 10 -5 0
-7 -4 -4 -10z"/>
<path d="M9305 2133 c-44 -47 -99 -104 -123 -126 -24 -23 -40 -47 -37 -54 2
-8 -1 -13 -8 -11 -8 2 -33 -17 -57 -42 -24 -25 -99 -102 -168 -171 -98 -100
-119 -126 -101 -125 13 1 23 7 22 14 -2 7 2 12 7 12 6 0 10 -6 10 -13 0 -8 7
-14 15 -14 8 0 12 4 9 8 -3 5 6 29 20 54 14 25 25 48 25 52 0 4 5 9 12 12 8 2
9 -1 3 -10 -7 -12 -5 -12 9 0 10 7 16 20 15 29 -4 19 33 42 39 25 3 -7 14 -13
26 -12 22 0 22 0 0 9 -13 5 -23 13 -23 18 0 15 126 139 149 147 12 3 19 11 15
16 -8 13 16 40 29 32 5 -3 7 -1 3 5 -3 6 0 16 9 24 40 36 43 38 55 24 6 -8 7
-16 3 -18 -4 -3 -3 -3 4 -2 6 2 14 0 16 -4 2 -4 2 0 0 8 -3 8 -6 27 -8 42 -4
25 -2 26 34 22 28 -3 40 -1 44 11 5 12 3 13 -13 3 -15 -10 -22 -10 -32 0 -9 9
-8 12 6 12 9 0 14 5 11 11 -9 14 25 50 39 42 6 -3 8 -3 4 2 -4 4 -1 14 7 21
14 14 44 9 57 -10 11 -16 10 6 -1 23 -5 7 -14 10 -20 7 -6 -4 -11 -2 -11 3 0
22 -17 8 -95 -76z m-35 -73 c0 -5 -4 -10 -10 -10 -5 0 -10 5 -10 10 0 6 5 10
10 10 6 0 10 -4 10 -10z m-396 -414 c-3 -9 -10 -13 -15 -10 -5 3 -3 11 4 19
15 16 19 13 11 -9z"/>
<path d="M9920 2169 c0 -5 5 -7 10 -4 6 3 10 8 10 11 0 2 -4 4 -10 4 -5 0 -10
-5 -10 -11z"/>
<path d="M9380 2121 c0 -6 5 -13 10 -16 6 -3 10 1 10 9 0 9 -4 16 -10 16 -5 0
-10 -4 -10 -9z"/>
<path d="M9418 2083 c7 -3 16 -2 19 1 4 3 -2 6 -13 5 -11 0 -14 -3 -6 -6z"/>
<path d="M9912 2054 c-7 -8 -8 -14 -3 -14 10 0 25 19 20 25 -2 1 -10 -3 -17
-11z"/>
<path d="M9865 2019 c-11 -17 1 -21 15 -4 8 9 8 15 2 15 -6 0 -14 -5 -17 -11z"/>
<path d="M9830 1979 c0 -5 5 -7 10 -4 6 3 10 8 10 11 0 2 -4 4 -10 4 -5 0 -10
-5 -10 -11z"/>
<path d="M9220 1956 c0 -9 7 -16 16 -16 17 0 14 22 -4 28 -7 2 -12 -3 -12 -12z"/>
<path d="M9684 1908 c10 -6 22 -6 26 -2 5 5 -3 10 -18 11 -22 1 -24 0 -8 -9z"/>
<path d="M9090 1865 c-8 -9 -8 -15 -2 -15 12 0 26 19 19 26 -2 2 -10 -2 -17
-11z"/>
<path d="M9536 1825 c4 -8 11 -15 16 -15 6 0 5 6 -2 15 -7 8 -14 15 -16 15 -2
0 -1 -7 2 -15z"/>
<path d="M9555 1780 c-3 -5 -1 -10 4 -10 6 0 11 5 11 10 0 6 -2 10 -4 10 -3 0
-8 -4 -11 -10z"/>
<path d="M9090 1770 c0 -5 7 -10 15 -10 8 0 15 5 15 10 0 6 -7 10 -15 10 -8 0
-15 -4 -15 -10z"/>
<path d="M8940 1610 c0 -5 5 -10 10 -10 6 0 10 5 10 10 0 6 -4 10 -10 10 -5 0
-10 -4 -10 -10z"/>
<path d="M9210 1591 c0 -5 5 -13 10 -16 6 -3 10 -2 10 4 0 5 -4 13 -10 16 -5
3 -10 2 -10 -4z"/>
<path d="M9296 1585 c-11 -8 -18 -17 -15 -19 2 -2 15 4 28 15 27 22 15 26 -13
4z"/>
<path d="M8638 1449 c-93 -94 -126 -134 -122 -147 4 -11 3 -13 -3 -5 -6 8 -51
-32 -148 -130 -77 -78 -133 -136 -124 -129 9 6 19 9 22 5 4 -3 7 -1 7 6 0 9 6
9 23 1 20 -10 20 -10 4 3 -14 12 -15 16 -4 26 8 6 17 8 21 4 4 -4 4 0 1 8 -4
10 3 22 17 31 13 9 44 36 69 62 26 25 49 42 53 38 4 -3 4 2 0 13 -6 14 -4 17
9 12 11 -4 14 -2 11 7 -7 18 13 30 51 31 23 1 30 5 30 20 0 11 8 21 17 23 14
3 16 7 8 23 -8 15 -7 17 4 13 8 -3 17 -1 21 5 4 7 -1 8 -12 4 -14 -5 -13 -1 6
20 13 15 27 24 31 22 4 -3 10 4 13 16 3 13 12 19 24 17 12 -2 17 2 15 15 -2
11 6 21 23 27 14 5 25 15 25 22 0 6 12 25 27 40 15 15 23 28 17 27 -5 -1 -66
-59 -136 -130z m-85 -120 c-6 -6 -9 -19 -6 -28 3 -12 2 -12 -7 2 -9 14 -9 22
1 33 6 8 14 12 17 9 3 -3 1 -10 -5 -16z"/>
<path d="M8770 1547 l-24 -32 24 20 c21 18 23 18 17 2 -4 -10 -3 -16 2 -13 6
4 14 58 7 55 0 0 -12 -14 -26 -32z"/>
<path d="M8704 1460 c0 -13 4 -16 10 -10 7 7 7 13 0 20 -6 6 -10 3 -10 -10z"/>
<path d="M8740 1469 c0 -5 5 -7 10 -4 6 3 10 8 10 11 0 2 -4 4 -10 4 -5 0 -10
-5 -10 -11z"/>
<path d="M8915 1430 c-3 -5 -1 -10 4 -10 6 0 11 5 11 10 0 6 -2 10 -4 10 -3 0
-8 -4 -11 -10z"/>
<path d="M8624 1380 c0 -13 4 -16 10 -10 7 7 7 13 0 20 -6 6 -10 3 -10 -10z"/>
<path d="M8878 1283 c-10 -2 -18 -9 -18 -14 0 -13 12 -11 34 6 20 15 16 17
-16 8z"/>
<path d="M8460 1175 c0 -8 5 -15 10 -15 6 0 10 7 10 15 0 8 -4 15 -10 15 -5 0
-10 -7 -10 -15z"/>
<path d="M8202 997 c-25 -26 -28 -37 -10 -37 6 0 8 3 5 7 -4 3 3 17 15 30 12
13 19 23 16 23 -2 0 -14 -10 -26 -23z"/>
<path d="M8434 946 c-10 -8 -17 -17 -14 -19 3 -3 16 3 29 14 27 22 15 26 -15
5z"/>
<path d="M8127 922 c-10 -10 -14 -21 -11 -24 3 -4 -3 -9 -14 -12 -11 -4 -36
-25 -57 -48 -21 -22 -34 -39 -28 -37 19 7 113 97 113 108 0 5 8 15 18 20 9 6
12 11 6 11 -6 0 -18 -8 -27 -18z"/>
<path d="M8317 873 c7 -3 9 -12 6 -21 -3 -10 -2 -13 4 -6 4 6 16 15 26 21 15
8 13 10 -15 10 -18 0 -28 -2 -21 -4z"/>
<path d="M8223 788 c-18 -13 -33 -27 -33 -32 0 -5 6 -4 13 1 6 5 25 19 41 31
38 29 20 28 -21 0z"/>
<path d="M7957 747 c-47 -49 -104 -114 -87 -99 18 15 34 16 24 0 -4 -7 -3 -8
5 -4 6 4 8 12 5 18 -4 5 18 34 47 64 29 30 50 54 46 54 -4 0 -22 -15 -40 -33z"/>
<path d="M8080 703 c0 -22 22 -26 38 -7 16 17 16 17 -1 4 -16 -12 -20 -12 -28
1 -5 9 -9 10 -9 2z"/>
<path d="M7848 623 c-10 -2 -18 -8 -18 -13 0 -10 38 -1 46 11 5 9 1 10 -28 2z"/>
<path d="M7783 563 c-3 -10 -8 -22 -10 -28 -3 -5 3 -1 11 9 16 20 21 36 11 36
-3 0 -8 -8 -12 -17z"/>
<path d="M7867 533 c-4 -3 -7 -11 -7 -17 0 -6 5 -5 12 2 6 6 9 14 7 17 -3 3
-9 2 -12 -2z"/>
<path d="M7575 300 c-3 -5 -1 -10 4 -10 6 0 11 5 11 10 0 6 -2 10 -4 10 -3 0
-8 -4 -11 -10z"/>
</g>
</svg>
